<?xml version="1.0" encoding="UTF-8"?>
<mxfile host="app.diagrams.net" agent="Mozilla/5.0 (Windows NT 10.0; Win64; x64) AppleWebKit/537.36 (KHTML, like Gecko) Chrome/138.0.0.0 YaBrowser/25.8.0.0 Safari/537.36" version="28.2.5">
  <diagram name="Страница — 1" id="XIFLfUQBfyp-i4rlcvOL">
    <mxGraphModel dx="1737" dy="1032" grid="1" gridSize="10" guides="1" tooltips="1" connect="1" arrows="1" fold="1" page="1" pageScale="1" pageWidth="827" pageHeight="1169" math="0" shadow="0">
      <root>
        <mxCell id="0" />
        <mxCell id="1" parent="0" />
        <mxCell id="zbHSK9sfCgTaaQC7ksIW-63" value="Сотрудник получает оборудование" style="swimlane;html=1;childLayout=stackLayout;resizeParent=1;resizeParentMax=0;horizontal=1;startSize=20;horizontalStack=0;whiteSpace=wrap;" parent="1" vertex="1">
          <mxGeometry x="40" y="720" width="1060" height="410" as="geometry" />
        </mxCell>
        <mxCell id="zbHSK9sfCgTaaQC7ksIW-64" value="Сотрудник" style="swimlane;html=1;startSize=20;horizontal=0;" parent="zbHSK9sfCgTaaQC7ksIW-63" vertex="1">
          <mxGeometry y="20" width="1060" height="120" as="geometry" />
        </mxCell>
        <mxCell id="zbHSK9sfCgTaaQC7ksIW-74" value="Подать заявку&amp;nbsp;&lt;div&gt;на оборудование&lt;/div&gt;" style="points=[[0.145,0.145,0],[0.5,0,0],[0.855,0.145,0],[1,0.5,0],[0.855,0.855,0],[0.5,1,0],[0.145,0.855,0],[0,0.5,0]];shape=mxgraph.bpmn.event;html=1;verticalLabelPosition=top;labelBackgroundColor=#ffffff;verticalAlign=bottom;align=center;perimeter=ellipsePerimeter;outlineConnect=0;aspect=fixed;outline=standard;symbol=message;labelPosition=center;" parent="zbHSK9sfCgTaaQC7ksIW-64" vertex="1">
          <mxGeometry x="70" y="44" width="50" height="50" as="geometry" />
        </mxCell>
        <mxCell id="zbHSK9sfCgTaaQC7ksIW-80" value="Уведомление&amp;nbsp;&lt;div&gt;сотрудника об ошибке&lt;/div&gt;" style="points=[[0.145,0.145,0],[0.5,0,0],[0.855,0.145,0],[1,0.5,0],[0.855,0.855,0],[0.5,1,0],[0.145,0.855,0],[0,0.5,0]];shape=mxgraph.bpmn.event;html=1;verticalLabelPosition=top;labelBackgroundColor=#ffffff;verticalAlign=bottom;align=center;perimeter=ellipsePerimeter;outlineConnect=0;aspect=fixed;outline=end;symbol=message;labelPosition=center;" parent="zbHSK9sfCgTaaQC7ksIW-64" vertex="1">
          <mxGeometry x="200" y="44" width="50" height="50" as="geometry" />
        </mxCell>
        <mxCell id="zbHSK9sfCgTaaQC7ksIW-93" value="Уведомление&amp;nbsp;&lt;div&gt;сотрудника об ошибке&lt;/div&gt;" style="points=[[0.145,0.145,0],[0.5,0,0],[0.855,0.145,0],[1,0.5,0],[0.855,0.855,0],[0.5,1,0],[0.145,0.855,0],[0,0.5,0]];shape=mxgraph.bpmn.event;html=1;verticalLabelPosition=top;labelBackgroundColor=#ffffff;verticalAlign=bottom;align=center;perimeter=ellipsePerimeter;outlineConnect=0;aspect=fixed;outline=end;symbol=message;labelPosition=center;" parent="zbHSK9sfCgTaaQC7ksIW-64" vertex="1">
          <mxGeometry x="480" y="44" width="50" height="50" as="geometry" />
        </mxCell>
        <mxCell id="zbHSK9sfCgTaaQC7ksIW-99" value="Уведомление&lt;div&gt;об одобрении&lt;/div&gt;" style="points=[[0.145,0.145,0],[0.5,0,0],[0.855,0.145,0],[1,0.5,0],[0.855,0.855,0],[0.5,1,0],[0.145,0.855,0],[0,0.5,0]];shape=mxgraph.bpmn.event;html=1;verticalLabelPosition=top;labelBackgroundColor=#ffffff;verticalAlign=bottom;align=center;perimeter=ellipsePerimeter;outlineConnect=0;aspect=fixed;outline=catching;symbol=message;labelPosition=center;" parent="zbHSK9sfCgTaaQC7ksIW-64" vertex="1">
          <mxGeometry x="600" y="44" width="50" height="50" as="geometry" />
        </mxCell>
        <mxCell id="zbHSK9sfCgTaaQC7ksIW-101" value="Получение оборудование" style="points=[[0.25,0,0],[0.5,0,0],[0.75,0,0],[1,0.25,0],[1,0.5,0],[1,0.75,0],[0.75,1,0],[0.5,1,0],[0.25,1,0],[0,0.75,0],[0,0.5,0],[0,0.25,0]];shape=mxgraph.bpmn.task2;whiteSpace=wrap;rectStyle=rounded;size=10;html=1;container=1;expand=0;collapsible=0;taskMarker=abstract;" parent="zbHSK9sfCgTaaQC7ksIW-64" vertex="1">
          <mxGeometry x="700" y="44" width="120" height="50" as="geometry" />
        </mxCell>
        <mxCell id="zbHSK9sfCgTaaQC7ksIW-102" style="edgeStyle=orthogonalEdgeStyle;rounded=0;orthogonalLoop=1;jettySize=auto;html=1;entryX=0;entryY=0.5;entryDx=0;entryDy=0;entryPerimeter=0;" parent="zbHSK9sfCgTaaQC7ksIW-64" source="zbHSK9sfCgTaaQC7ksIW-99" target="zbHSK9sfCgTaaQC7ksIW-101" edge="1">
          <mxGeometry relative="1" as="geometry" />
        </mxCell>
        <mxCell id="zbHSK9sfCgTaaQC7ksIW-65" value="Система AssetFlow" style="swimlane;html=1;startSize=20;horizontal=0;" parent="zbHSK9sfCgTaaQC7ksIW-63" vertex="1">
          <mxGeometry y="140" width="1060" height="140" as="geometry" />
        </mxCell>
        <mxCell id="zbHSK9sfCgTaaQC7ksIW-84" style="edgeStyle=orthogonalEdgeStyle;rounded=0;orthogonalLoop=1;jettySize=auto;html=1;" parent="zbHSK9sfCgTaaQC7ksIW-65" source="zbHSK9sfCgTaaQC7ksIW-77" target="zbHSK9sfCgTaaQC7ksIW-83" edge="1">
          <mxGeometry relative="1" as="geometry" />
        </mxCell>
        <mxCell id="zbHSK9sfCgTaaQC7ksIW-85" value="Да" style="edgeLabel;html=1;align=center;verticalAlign=middle;resizable=0;points=[];" parent="zbHSK9sfCgTaaQC7ksIW-84" vertex="1" connectable="0">
          <mxGeometry x="-0.624" relative="1" as="geometry">
            <mxPoint x="11" as="offset" />
          </mxGeometry>
        </mxCell>
        <mxCell id="zbHSK9sfCgTaaQC7ksIW-77" value="Заявка&amp;nbsp;&lt;div&gt;корректна?&lt;/div&gt;" style="points=[[0.25,0.25,0],[0.5,0,0],[0.75,0.25,0],[1,0.5,0],[0.75,0.75,0],[0.5,1,0],[0.25,0.75,0],[0,0.5,0]];shape=mxgraph.bpmn.gateway2;html=1;verticalLabelPosition=bottom;labelBackgroundColor=#ffffff;verticalAlign=top;align=center;perimeter=rhombusPerimeter;outlineConnect=0;outline=none;symbol=none;labelPosition=center;" parent="zbHSK9sfCgTaaQC7ksIW-65" vertex="1">
          <mxGeometry x="200" y="40" width="50" height="50" as="geometry" />
        </mxCell>
        <mxCell id="zbHSK9sfCgTaaQC7ksIW-83" value="Присваивание заявке статус &quot;На рассмотрении&quot;" style="points=[[0.25,0,0],[0.5,0,0],[0.75,0,0],[1,0.25,0],[1,0.5,0],[1,0.75,0],[0.75,1,0],[0.5,1,0],[0.25,1,0],[0,0.75,0],[0,0.5,0],[0,0.25,0]];shape=mxgraph.bpmn.task2;whiteSpace=wrap;rectStyle=rounded;size=10;html=1;container=1;expand=0;collapsible=0;taskMarker=abstract;" parent="zbHSK9sfCgTaaQC7ksIW-65" vertex="1">
          <mxGeometry x="300" y="40" width="120" height="50" as="geometry" />
        </mxCell>
        <mxCell id="zbHSK9sfCgTaaQC7ksIW-96" value="Присваивание заявке статус&amp;nbsp;&lt;div&gt;&quot;Зарезервировано&quot;&lt;/div&gt;" style="points=[[0.25,0,0],[0.5,0,0],[0.75,0,0],[1,0.25,0],[1,0.5,0],[1,0.75,0],[0.75,1,0],[0.5,1,0],[0.25,1,0],[0,0.75,0],[0,0.5,0],[0,0.25,0]];shape=mxgraph.bpmn.task2;whiteSpace=wrap;rectStyle=rounded;size=10;html=1;container=1;expand=0;collapsible=0;taskMarker=abstract;" parent="zbHSK9sfCgTaaQC7ksIW-65" vertex="1">
          <mxGeometry x="565" y="40" width="120" height="50" as="geometry" />
        </mxCell>
        <mxCell id="zbHSK9sfCgTaaQC7ksIW-108" style="edgeStyle=orthogonalEdgeStyle;rounded=0;orthogonalLoop=1;jettySize=auto;html=1;" parent="zbHSK9sfCgTaaQC7ksIW-65" source="zbHSK9sfCgTaaQC7ksIW-105" target="zbHSK9sfCgTaaQC7ksIW-107" edge="1">
          <mxGeometry relative="1" as="geometry" />
        </mxCell>
        <mxCell id="zbHSK9sfCgTaaQC7ksIW-105" value="Присваивание заявке статус&amp;nbsp;&lt;div&gt;&quot;У сотрудника&quot;&lt;/div&gt;" style="points=[[0.25,0,0],[0.5,0,0],[0.75,0,0],[1,0.25,0],[1,0.5,0],[1,0.75,0],[0.75,1,0],[0.5,1,0],[0.25,1,0],[0,0.75,0],[0,0.5,0],[0,0.25,0]];shape=mxgraph.bpmn.task2;whiteSpace=wrap;rectStyle=rounded;size=10;html=1;container=1;expand=0;collapsible=0;taskMarker=abstract;" parent="zbHSK9sfCgTaaQC7ksIW-65" vertex="1">
          <mxGeometry x="820" y="40" width="120" height="50" as="geometry" />
        </mxCell>
        <mxCell id="zbHSK9sfCgTaaQC7ksIW-107" value="Процесс завершён" style="points=[[0.145,0.145,0],[0.5,0,0],[0.855,0.145,0],[1,0.5,0],[0.855,0.855,0],[0.5,1,0],[0.145,0.855,0],[0,0.5,0]];shape=mxgraph.bpmn.event;html=1;verticalLabelPosition=bottom;labelBackgroundColor=#ffffff;verticalAlign=top;align=center;perimeter=ellipsePerimeter;outlineConnect=0;aspect=fixed;outline=end;symbol=terminate2;" parent="zbHSK9sfCgTaaQC7ksIW-65" vertex="1">
          <mxGeometry x="980" y="40" width="50" height="50" as="geometry" />
        </mxCell>
        <mxCell id="zbHSK9sfCgTaaQC7ksIW-66" value="Администратор" style="swimlane;html=1;startSize=20;horizontal=0;" parent="zbHSK9sfCgTaaQC7ksIW-63" vertex="1">
          <mxGeometry y="280" width="1060" height="130" as="geometry" />
        </mxCell>
        <mxCell id="zbHSK9sfCgTaaQC7ksIW-86" value="Уведомление&lt;div&gt;Администратора&lt;/div&gt;" style="points=[[0.145,0.145,0],[0.5,0,0],[0.855,0.145,0],[1,0.5,0],[0.855,0.855,0],[0.5,1,0],[0.145,0.855,0],[0,0.5,0]];shape=mxgraph.bpmn.event;html=1;verticalLabelPosition=bottom;labelBackgroundColor=#ffffff;verticalAlign=top;align=center;perimeter=ellipsePerimeter;outlineConnect=0;aspect=fixed;outline=catching;symbol=message;" parent="zbHSK9sfCgTaaQC7ksIW-66" vertex="1">
          <mxGeometry x="335" y="35" width="50" height="50" as="geometry" />
        </mxCell>
        <mxCell id="zbHSK9sfCgTaaQC7ksIW-91" value="Заявка одобрена?" style="points=[[0.25,0.25,0],[0.5,0,0],[0.75,0.25,0],[1,0.5,0],[0.75,0.75,0],[0.5,1,0],[0.25,0.75,0],[0,0.5,0]];shape=mxgraph.bpmn.gateway2;html=1;verticalLabelPosition=bottom;labelBackgroundColor=#ffffff;verticalAlign=top;align=center;perimeter=rhombusPerimeter;outlineConnect=0;outline=none;symbol=none;" parent="zbHSK9sfCgTaaQC7ksIW-66" vertex="1">
          <mxGeometry x="480" y="35" width="50" height="50" as="geometry" />
        </mxCell>
        <mxCell id="zbHSK9sfCgTaaQC7ksIW-103" value="Уведомление&lt;div&gt;о получении&lt;/div&gt;" style="points=[[0.145,0.145,0],[0.5,0,0],[0.855,0.145,0],[1,0.5,0],[0.855,0.855,0],[0.5,1,0],[0.145,0.855,0],[0,0.5,0]];shape=mxgraph.bpmn.event;html=1;verticalLabelPosition=bottom;labelBackgroundColor=#ffffff;verticalAlign=top;align=center;perimeter=ellipsePerimeter;outlineConnect=0;aspect=fixed;outline=catching;symbol=message;" parent="zbHSK9sfCgTaaQC7ksIW-66" vertex="1">
          <mxGeometry x="735" y="35" width="50" height="50" as="geometry" />
        </mxCell>
        <mxCell id="zbHSK9sfCgTaaQC7ksIW-110" style="edgeStyle=orthogonalEdgeStyle;rounded=0;orthogonalLoop=1;jettySize=auto;html=1;entryX=0;entryY=0.5;entryDx=0;entryDy=0;entryPerimeter=0;" parent="zbHSK9sfCgTaaQC7ksIW-66" source="zbHSK9sfCgTaaQC7ksIW-86" target="zbHSK9sfCgTaaQC7ksIW-91" edge="1">
          <mxGeometry relative="1" as="geometry" />
        </mxCell>
        <mxCell id="zbHSK9sfCgTaaQC7ksIW-81" style="edgeStyle=orthogonalEdgeStyle;rounded=0;orthogonalLoop=1;jettySize=auto;html=1;entryX=0.5;entryY=1;entryDx=0;entryDy=0;entryPerimeter=0;" parent="zbHSK9sfCgTaaQC7ksIW-63" source="zbHSK9sfCgTaaQC7ksIW-77" target="zbHSK9sfCgTaaQC7ksIW-80" edge="1">
          <mxGeometry relative="1" as="geometry" />
        </mxCell>
        <mxCell id="zbHSK9sfCgTaaQC7ksIW-82" value="Нет" style="edgeLabel;html=1;align=center;verticalAlign=middle;resizable=0;points=[];" parent="zbHSK9sfCgTaaQC7ksIW-81" vertex="1" connectable="0">
          <mxGeometry x="-0.4606" y="2" relative="1" as="geometry">
            <mxPoint x="2" y="-2" as="offset" />
          </mxGeometry>
        </mxCell>
        <mxCell id="zbHSK9sfCgTaaQC7ksIW-88" style="edgeStyle=orthogonalEdgeStyle;rounded=0;orthogonalLoop=1;jettySize=auto;html=1;entryX=0.5;entryY=0;entryDx=0;entryDy=0;entryPerimeter=0;" parent="zbHSK9sfCgTaaQC7ksIW-63" source="zbHSK9sfCgTaaQC7ksIW-83" target="zbHSK9sfCgTaaQC7ksIW-86" edge="1">
          <mxGeometry relative="1" as="geometry" />
        </mxCell>
        <mxCell id="zbHSK9sfCgTaaQC7ksIW-94" style="edgeStyle=orthogonalEdgeStyle;rounded=0;orthogonalLoop=1;jettySize=auto;html=1;entryX=0.5;entryY=1;entryDx=0;entryDy=0;entryPerimeter=0;" parent="zbHSK9sfCgTaaQC7ksIW-63" source="zbHSK9sfCgTaaQC7ksIW-91" target="zbHSK9sfCgTaaQC7ksIW-93" edge="1">
          <mxGeometry relative="1" as="geometry" />
        </mxCell>
        <mxCell id="zbHSK9sfCgTaaQC7ksIW-95" value="Нет" style="edgeLabel;html=1;align=center;verticalAlign=middle;resizable=0;points=[];" parent="zbHSK9sfCgTaaQC7ksIW-94" vertex="1" connectable="0">
          <mxGeometry x="-0.1801" y="-1" relative="1" as="geometry">
            <mxPoint as="offset" />
          </mxGeometry>
        </mxCell>
        <mxCell id="zbHSK9sfCgTaaQC7ksIW-97" style="edgeStyle=orthogonalEdgeStyle;rounded=0;orthogonalLoop=1;jettySize=auto;html=1;entryX=0.5;entryY=1;entryDx=0;entryDy=0;entryPerimeter=0;" parent="zbHSK9sfCgTaaQC7ksIW-63" source="zbHSK9sfCgTaaQC7ksIW-91" target="zbHSK9sfCgTaaQC7ksIW-96" edge="1">
          <mxGeometry relative="1" as="geometry" />
        </mxCell>
        <mxCell id="zbHSK9sfCgTaaQC7ksIW-98" value="Да" style="edgeLabel;html=1;align=center;verticalAlign=middle;resizable=0;points=[];" parent="zbHSK9sfCgTaaQC7ksIW-97" vertex="1" connectable="0">
          <mxGeometry x="-0.5118" y="-1" relative="1" as="geometry">
            <mxPoint as="offset" />
          </mxGeometry>
        </mxCell>
        <mxCell id="zbHSK9sfCgTaaQC7ksIW-100" style="edgeStyle=orthogonalEdgeStyle;rounded=0;orthogonalLoop=1;jettySize=auto;html=1;entryX=0.5;entryY=1;entryDx=0;entryDy=0;entryPerimeter=0;" parent="zbHSK9sfCgTaaQC7ksIW-63" source="zbHSK9sfCgTaaQC7ksIW-96" target="zbHSK9sfCgTaaQC7ksIW-99" edge="1">
          <mxGeometry relative="1" as="geometry" />
        </mxCell>
        <mxCell id="zbHSK9sfCgTaaQC7ksIW-104" style="edgeStyle=orthogonalEdgeStyle;rounded=0;orthogonalLoop=1;jettySize=auto;html=1;entryX=0.5;entryY=0;entryDx=0;entryDy=0;entryPerimeter=0;" parent="zbHSK9sfCgTaaQC7ksIW-63" source="zbHSK9sfCgTaaQC7ksIW-101" target="zbHSK9sfCgTaaQC7ksIW-103" edge="1">
          <mxGeometry relative="1" as="geometry" />
        </mxCell>
        <mxCell id="zbHSK9sfCgTaaQC7ksIW-106" style="edgeStyle=orthogonalEdgeStyle;rounded=0;orthogonalLoop=1;jettySize=auto;html=1;entryX=0.5;entryY=1;entryDx=0;entryDy=0;entryPerimeter=0;" parent="zbHSK9sfCgTaaQC7ksIW-63" source="zbHSK9sfCgTaaQC7ksIW-103" target="zbHSK9sfCgTaaQC7ksIW-105" edge="1">
          <mxGeometry relative="1" as="geometry" />
        </mxCell>
        <mxCell id="zbHSK9sfCgTaaQC7ksIW-109" style="edgeStyle=orthogonalEdgeStyle;rounded=0;orthogonalLoop=1;jettySize=auto;html=1;entryX=0;entryY=0.5;entryDx=0;entryDy=0;entryPerimeter=0;" parent="zbHSK9sfCgTaaQC7ksIW-63" source="zbHSK9sfCgTaaQC7ksIW-74" target="zbHSK9sfCgTaaQC7ksIW-77" edge="1">
          <mxGeometry relative="1" as="geometry">
            <Array as="points">
              <mxPoint x="95" y="205" />
            </Array>
          </mxGeometry>
        </mxCell>
      </root>
    </mxGraphModel>
  </diagram>
</mxfile>
